<svg xmlns="http://www.w3.org/2000/svg" xmlns:xlink="http://www.w3.org/1999/xlink" viewBox="0,0,256,256" width="64px" height="64px" fill-rule="nonzero"><g fill="#ffffff" fill-rule="nonzero" stroke="none" stroke-width="1" stroke-linecap="butt" stroke-linejoin="miter" stroke-miterlimit="10" stroke-dasharray="" stroke-dashoffset="0" font-family="none" font-weight="none" font-size="none" text-anchor="none" style="mix-blend-mode: normal"><g transform="scale(4,4)"><path d="M8.30078,2.5c-1.53853,-0.00021 -3.0141,0.61088 -4.102,1.69878c-1.0879,1.0879 -1.69899,2.56347 -1.69878,4.102v47.39844c-0.00021,1.53853 0.61088,3.0141 1.69878,4.102c1.0879,1.0879 2.56347,1.69899 4.102,1.69878h33h14.39844c1.53853,0.00021 3.0141,-0.61088 4.102,-1.69878c1.0879,-1.0879 1.69899,-2.56347 1.69878,-4.102v-33v-14.39844c0.00021,-1.53853 -0.61088,-3.0141 -1.69878,-4.102c-1.0879,-1.0879 -2.56347,-1.69899 -4.102,-1.69878h-33zM8.30078,5.5h12.86914v15.66992h-15.66992v-12.86914c-0.00021,-0.74288 0.29481,-1.45539 0.8201,-1.98068c0.52529,-0.52529 1.2378,-0.82031 1.98068,-0.8201zM24.16992,5.5h15.66016v15.66992h-15.66016zM42.83008,5.5h12.86914c0.74288,-0.00021 1.45539,0.29481 1.98068,0.8201c0.52529,0.52529 0.82031,1.2378 0.8201,1.98068v12.86914h-15.66992zM51.17969,7.82031c-7.24,0.26 -7.24,10.77 0,11c7.25,-0.23 7.25,-10.74 0,-11zM29.16797,9.48633c-0.39452,0.0031 -0.7717,0.16254 -1.04883,0.44336c-0.58018,0.58801 -0.58018,1.53308 0,2.12109l1.76172,1.75l-1.76172,1.75977c-0.57889,0.58778 -0.57889,1.53136 0,2.11914c0.58801,0.58018 1.53308,0.58018 2.12109,0l1.75977,-1.75977l1.75977,1.75977c0.37401,0.40046 0.93662,0.56511 1.46752,0.42949c0.5309,-0.13562 0.9456,-0.54995 1.08172,-1.08072c0.13611,-0.53078 -0.02802,-1.09354 -0.42814,-1.46791l-1.76172,-1.75977l1.76172,-1.75c0.58018,-0.58801 0.58018,-1.53308 0,-2.12109c-0.27998,-0.28371 -0.66195,-0.44341 -1.06055,-0.44341c-0.39859,0 -0.78057,0.1597 -1.06055,0.44341l-1.75977,1.75l-1.75977,-1.75c-0.28283,-0.2866 -0.66962,-0.44653 -1.07227,-0.44336zM51.17969,10.82031c1.38071,0 2.5,1.11929 2.5,2.5c0,1.38071 -1.11929,2.5 -2.5,2.5c-1.31367,-0.08038 -2.33792,-1.16922 -2.33792,-2.48535c0,-1.31613 1.02425,-2.40497 2.33792,-2.48535zM5.5,24.16992h15.66992v15.66016h-15.66992zM24.16992,24.16992h15.66016v15.66016h-15.66016zM42.83008,24.16992h15.66992v15.66016h-15.66992zM32,26.53906c-7.25,0.23 -7.24,10.74 0,11c7.25,-0.26 7.24,-10.77 0,-11zM32,29.53906c1.31368,0.08038 2.33793,1.16922 2.33793,2.48535c0,1.31613 -1.02425,2.40497 -2.33793,2.48535v0.0293c-1.38071,0 -2.5,-1.11929 -2.5,-2.5c0,-1.38071 1.11929,-2.5 2.5,-2.5zM5.5,42.83008h15.66992v15.66992h-12.86914c-0.74288,0.00021 -1.45539,-0.29481 -1.98068,-0.8201c-0.52529,-0.52529 -0.82031,-1.2378 -0.8201,-1.98068zM24.16992,42.83008h15.66016v15.66992h-15.66016zM42.83008,42.83008h15.66992v12.86914c0.00021,0.74288 -0.29481,1.45539 -0.8201,1.98068c-0.52529,0.52529 -1.2378,0.82031 -1.98068,0.8201h-12.86914zM32,45.21094c-7.25,0.23 -7.24,10.73 0,11c7.25,-0.27 7.24,-10.77 0,-11zM10.49414,46.37305c-0.603,0.01114 -1.14091,0.38172 -1.36614,0.94119c-0.22523,0.55946 -0.09414,1.19939 0.33294,1.62522l1.75,1.75l-1.75,1.75977c-0.28371,0.27998 -0.44341,0.66195 -0.44341,1.06055c0,0.39859 0.1597,0.78057 0.44341,1.06055c0.58778,0.57889 1.53136,0.57889 2.11914,0l1.75,-1.75977l1.75977,1.75977c0.58801,0.58018 1.53308,0.58018 2.12109,0c0.28371,-0.27998 0.44341,-0.66195 0.44341,-1.06055c0,-0.39859 -0.1597,-0.78057 -0.44341,-1.06055l-1.76172,-1.75977l1.76172,-1.75c0.28363,-0.28161 0.44315,-0.66477 0.44315,-1.06445c0,-0.39969 -0.15951,-0.78285 -0.44315,-1.06445c-0.58801,-0.58018 -1.53308,-0.58018 -2.12109,0l-1.75977,1.75977l-1.75,-1.75977c-0.28794,-0.28665 -0.6797,-0.44448 -1.08594,-0.4375zM47.1543,46.37305c-0.60335,0.01037 -1.14197,0.38068 -1.36769,0.94031c-0.22573,0.55963 -0.09477,1.20001 0.33254,1.6261l1.76172,1.75l-1.76172,1.75977c-0.28089,0.28284 -0.43674,0.66644 -0.4327,1.06504c0.00404,0.3986 0.16762,0.77896 0.45419,1.05605c0.58778,0.57889 1.53136,0.57889 2.11914,0l1.74023,-1.75977l1.75,1.75977c0.58778,0.57889 1.53136,0.57889 2.11914,0c0.28371,-0.27998 0.44341,-0.66195 0.44341,-1.06055c0,-0.39859 -0.1597,-0.78057 -0.44341,-1.06055l-1.75,-1.75977l1.75,-1.75c0.55795,-0.59013 0.54603,-1.51679 -0.02691,-2.09237c-0.57294,-0.57558 -1.49954,-0.59176 -2.09223,-0.03653l-1.75,1.75977l-1.75977,-1.75977c-0.28794,-0.28665 -0.6797,-0.44448 -1.08594,-0.4375zM32,48.21094c1.34983,0.02733 2.42981,1.12939 2.42981,2.47949c0,1.3501 -1.07998,2.45217 -2.42981,2.47949v0.04102c-1.38071,0 -2.5,-1.11929 -2.5,-2.5c0,-1.38071 1.11929,-2.5 2.5,-2.5z"></path></g></g></svg>